<svg width="53" height="92" viewBox="0 0 53 92" fill="none" xmlns="http://www.w3.org/2000/svg">
<path d="M0.5625 48.8594C0.65625 47.3594 1.10938 45.9531 1.92188 44.6406C2.73438 43.2969 3.6875 42.0469 4.78125 40.8906C5.90625 39.7344 7.07812 38.6719 8.29688 37.7031C9.54688 36.7031 10.6406 35.7812 11.5781 34.9375C11.5781 34.75 11.4844 34.5 11.2969 34.1875C11.1406 33.875 11.0156 33.3281 10.9219 32.5469C10.9219 31.1719 11.2344 29.9219 11.8594 28.7969C12.4844 27.6406 13.2969 26.6719 14.2969 25.8906C15.3281 25.0781 16.4688 24.4531 17.7188 24.0156C19 23.5781 20.2969 23.3594 21.6094 23.3594C22.1719 23.3594 22.6406 23.5781 23.0156 24.0156C23.3906 24.4219 23.6875 24.9219 23.9062 25.5156C24.125 26.1094 24.2656 26.7188 24.3281 27.3438C24.4219 27.9688 24.4688 28.4844 24.4688 28.8906H22.8281C22.8281 28.5469 22.7812 28.1875 22.6875 27.8125C22.625 27.4375 22.5 27.1094 22.3125 26.8281C22.1562 26.5156 21.9375 26.2656 21.6562 26.0781C21.4062 25.8594 21.0781 25.75 20.6719 25.75C19.9531 25.75 19.1719 25.9531 18.3281 26.3594C17.4844 26.7344 16.6875 27.2344 15.9375 27.8594C15.2188 28.4531 14.6094 29.1406 14.1094 29.9219C13.6094 30.7031 13.3594 31.4844 13.3594 32.2656C13.3594 32.6719 13.4844 32.9688 13.7344 33.1562C14.0156 33.3125 14.3594 33.4219 14.7656 33.4844C15.2031 33.5469 15.6562 33.5781 16.125 33.5781C16.5938 33.5781 17.0312 33.6094 17.4375 33.6719C17.875 33.7031 18.2188 33.8125 18.4688 34C18.75 34.1875 18.8906 34.4844 18.8906 34.8906C18.8906 35.1406 18.8594 35.3906 18.7969 35.6406C18.7344 35.8594 18.5469 36.0469 18.2344 36.2031C16.4219 36.6719 14.7812 37.2344 13.3125 37.8906C11.875 38.5156 10.5625 39.2812 9.375 40.1875C8.1875 41.0625 7.07812 42.1094 6.04688 43.3281C5.04688 44.5469 4.0625 46 3.09375 47.6875C3.09375 47.75 3.07812 47.9062 3.04688 48.1562C3.04688 48.4062 3.04688 48.5625 3.04688 48.625C3.04688 49.75 3.35938 50.6094 3.98438 51.2031C4.64062 51.7656 5.5 52.0469 6.5625 52.0469C7.75 52.0469 9.07812 51.8594 10.5469 51.4844C12.0469 51.1094 13.5 50.7031 14.9062 50.2656C16.3125 49.8281 17.5938 49.4219 18.75 49.0469C19.9375 48.6719 20.8125 48.4844 21.375 48.4844C21.3438 49.1719 21.0469 49.8281 20.4844 50.4531C19.9219 51.0781 19.1875 51.6562 18.2812 52.1875C17.375 52.6875 16.3438 53.1406 15.1875 53.5469C14.0625 53.9531 12.9062 54.2812 11.7188 54.5312C10.5625 54.7812 9.42188 54.9531 8.29688 55.0469C7.20312 55.1406 6.23438 55.1406 5.39062 55.0469C4.57812 55.0469 3.85938 54.8594 3.23438 54.4844C2.64062 54.1094 2.14062 53.625 1.73438 53.0312C1.35938 52.4375 1.0625 51.7812 0.84375 51.0625C0.65625 50.3125 0.5625 49.5781 0.5625 48.8594Z" fill="black"/>
<path d="M0.1875 48.7188C0.1875 48.4688 0.265625 48.2031 0.421875 47.9219C0.578125 47.6406 0.78125 47.375 1.03125 47.125C1.28125 46.875 1.54688 46.6719 1.82812 46.5156C2.10938 46.3594 2.375 46.2812 2.625 46.2812C2.6875 46.2812 2.78125 46.2812 2.90625 46.2812C3.0625 46.2812 3.17188 46.2969 3.23438 46.3281C2.85938 46.7344 2.64062 47.1406 2.57812 47.5469C2.54688 47.9531 2.53125 48.3906 2.53125 48.8594C2.53125 49.5781 2.6875 50.1719 3 50.6406C3.34375 51.0781 3.76562 51.4375 4.26562 51.7188C4.76562 51.9688 5.3125 52.1406 5.90625 52.2344C6.53125 52.3594 7.125 52.4219 7.6875 52.4219C10.0312 52.4219 12.1875 52.1094 14.1562 51.4844C16.125 50.8281 17.9219 49.9531 19.5469 48.8594C21.2031 47.7344 22.7031 46.4219 24.0469 44.9219C25.3906 43.3906 26.625 41.75 27.75 40C28.9062 38.2188 29.9531 36.375 30.8906 34.4688C31.8594 32.5625 32.7656 30.6406 33.6094 28.7031H33.4688H33.375C33.3438 28.7031 33.3281 28.6875 33.3281 28.6562C32.3906 28.6562 31.4844 28.9219 30.6094 29.4531C29.7344 29.9531 28.8594 30.5312 27.9844 31.1875C27.1094 31.8125 26.2188 32.3906 25.3125 32.9219C24.4062 33.4219 23.4688 33.6719 22.5 33.6719C22.5 33.4219 22.8594 32.9531 23.5781 32.2656C24.3281 31.5781 25.2656 30.7812 26.3906 29.875C27.5156 28.9688 28.7188 28.0156 30 27.0156C31.3125 26.0156 32.5156 25.1094 33.6094 24.2969C34.7344 23.4531 35.6719 22.7656 36.4219 22.2344C37.1719 21.6719 37.5469 21.3906 37.5469 21.3906C38.1406 21.3906 38.5625 21.6406 38.8125 22.1406C39.0625 22.6094 39.1875 23.0938 39.1875 23.5938C39.1875 23.6875 39.1719 23.8438 39.1406 24.0625C39.1406 24.2812 39.125 24.4062 39.0938 24.4375C37.7188 27.4062 36.5781 29.875 35.6719 31.8438C34.7656 33.8125 34.0312 35.3906 33.4688 36.5781C32.9062 37.7656 32.4844 38.6562 32.2031 39.25C31.9531 39.8125 31.7812 40.1875 31.6875 40.375C31.625 40.5625 31.6094 40.6406 31.6406 40.6094C31.7031 40.5469 31.7812 40.5 31.875 40.4688C32.1875 40.3438 32.7969 40.1875 33.7031 40C34.6406 39.7812 35.625 39.5625 36.6562 39.3438C37.7188 39.125 38.7031 38.9375 39.6094 38.7812C40.5469 38.5938 41.1875 38.4688 41.5312 38.4062L42.0938 37.8438C43.4688 34.9688 44.875 32.125 46.3125 29.3125C47.7812 26.4688 49.2188 23.625 50.625 20.7812C51.2188 20.2812 51.6094 20.1719 51.7969 20.4531C51.9844 20.7031 52.0625 21.125 52.0312 21.7188C52.0312 22.3125 51.9375 22.9531 51.75 23.6406C51.5625 24.2969 51.3906 24.7812 51.2344 25.0938L39.7031 50.5469C39.4219 51.1719 39.125 51.5469 38.8125 51.6719C38.5 51.7969 38.1094 51.8594 37.6406 51.8594C37.3594 51.8594 37.0469 51.8438 36.7031 51.8125C36.3594 51.7812 36.1406 51.5781 36.0469 51.2031C36.6406 50.6719 37.1875 50 37.6875 49.1875C38.2188 48.3438 38.6719 47.4844 39.0469 46.6094C39.4219 45.7031 39.7031 44.8125 39.8906 43.9375C40.1094 43.0312 40.2188 42.2344 40.2188 41.5469C40.1562 41.5469 40.0625 41.5312 39.9375 41.5C39.8438 41.4688 39.7656 41.4688 39.7031 41.5C38.7344 41.8125 37.7031 42.0625 36.6094 42.25C35.5156 42.4062 34.4219 42.5938 33.3281 42.8125C32.2344 43 31.1875 43.2656 30.1875 43.6094C29.1875 43.9531 28.3125 44.4531 27.5625 45.1094C25.75 46.6406 24.1875 48.0156 22.875 49.2344C21.5625 50.4219 20.2188 51.4375 18.8438 52.2812C17.4688 53.125 15.9219 53.7656 14.2031 54.2031C12.4844 54.6406 10.3438 54.8594 7.78125 54.8594C6.75 54.8594 5.78125 54.75 4.875 54.5312C3.96875 54.3438 3.15625 54.0156 2.4375 53.5469C1.75 53.0781 1.20312 52.4531 0.796875 51.6719C0.390625 50.8906 0.1875 49.9062 0.1875 48.7188Z" fill="black"/>
</svg>
